<?xml version="1.0" encoding="UTF-8"?>
<svg xmlns="http://www.w3.org/2000/svg" xmlns:xlink="http://www.w3.org/1999/xlink" width="25px" height="24px" viewBox="0 0 25 24" version="1.1">
<g id="surface1">
<path style=" stroke:none;fill-rule:nonzero;fill:rgb(100%,100%,100%);fill-opacity:1;" d="M 16.5 2.398438 L 8.5 2.398438 C 5.191406 2.398438 2.5 4.984375 2.5 8.160156 L 2.5 20.640625 C 2.5 20.894531 2.605469 21.140625 2.792969 21.320312 C 2.980469 21.5 3.234375 21.601562 3.5 21.601562 L 16.5 21.601562 C 19.808594 21.601562 22.5 19.015625 22.5 15.839844 L 22.5 8.160156 C 22.5 4.984375 19.808594 2.398438 16.5 2.398438 Z M 20.5 15.839844 C 20.5 17.957031 18.707031 19.679688 16.5 19.679688 L 4.5 19.679688 L 4.5 8.160156 C 4.5 6.042969 6.292969 4.320312 8.5 4.320312 L 16.5 4.320312 C 18.707031 4.320312 20.5 6.042969 20.5 8.160156 Z M 20.5 15.839844 "/>
<path style=" stroke:none;fill-rule:nonzero;fill:rgb(100%,100%,100%);fill-opacity:1;" d="M 7.5 9.121094 L 17.5 9.121094 L 17.5 11.039062 L 7.5 11.039062 Z M 7.5 12.960938 L 14.5 12.960938 L 14.5 14.878906 L 7.5 14.878906 Z M 7.5 12.960938 "/>
</g>
</svg>
