<?xml version="1.0" encoding="UTF-8"?>
<svg xmlns="http://www.w3.org/2000/svg" xmlns:xlink="http://www.w3.org/1999/xlink" width="25px" height="24px" viewBox="0 0 25 24" version="1.1">
<g id="surface1">
<path style=" stroke:none;fill-rule:nonzero;fill:rgb(100%,100%,100%);fill-opacity:1;" d="M 21.46875 6.433594 L 13.21875 2.101562 C 13 1.984375 12.75 1.921875 12.5 1.921875 C 12.25 1.921875 12 1.984375 11.78125 2.101562 L 3.53125 6.433594 C 3.292969 6.558594 3.097656 6.742188 2.960938 6.964844 C 2.824219 7.183594 2.75 7.4375 2.75 7.695312 L 2.75 16.304688 C 2.75 16.5625 2.824219 16.8125 2.960938 17.035156 C 3.097656 17.257812 3.292969 17.4375 3.53125 17.5625 L 11.78125 21.898438 C 12 22.015625 12.25 22.078125 12.5 22.078125 C 12.75 22.078125 13 22.015625 13.21875 21.898438 L 21.46875 17.5625 C 21.707031 17.4375 21.902344 17.257812 22.039062 17.035156 C 22.175781 16.8125 22.25 16.5625 22.25 16.304688 L 22.25 7.695312 C 22.25 7.4375 22.175781 7.183594 22.039062 6.960938 C 21.902344 6.738281 21.707031 6.558594 21.46875 6.433594 Z M 12.5 3.359375 L 20.03125 7.320312 L 12.5 11.28125 L 4.96875 7.320312 Z M 4.25 8.578125 L 11.75 12.519531 L 11.75 20.242188 L 4.25 16.304688 Z M 13.25 20.242188 L 13.25 12.523438 L 20.75 8.578125 L 20.75 16.300781 Z M 13.25 20.242188 "/>
</g>
</svg>
