<?xml version="1.0" encoding="UTF-8"?>
<svg xmlns="http://www.w3.org/2000/svg" xmlns:xlink="http://www.w3.org/1999/xlink" width="25px" height="24px" viewBox="0 0 25 24" version="1.1">
<g id="surface1">
<path style=" stroke:none;fill-rule:nonzero;fill:rgb(100%,100%,100%);fill-opacity:1;" d="M 22.492188 6 L 18.746094 6 L 18.746094 2.398438 C 18.746094 1.074219 17.625 -0.00390625 16.246094 -0.00390625 L 8.75 -0.00390625 C 7.375 -0.00390625 6.253906 1.074219 6.253906 2.398438 L 6.253906 6 L 2.507812 6 C 1.128906 6 0.0078125 7.074219 0.0078125 8.398438 L 0.0078125 15.601562 C 0.0078125 16.925781 1.128906 18 2.507812 18 L 6.253906 18 L 6.253906 21.601562 C 6.253906 22.925781 7.375 24.003906 8.75 24.003906 L 16.246094 24.003906 C 17.625 24.003906 18.746094 22.925781 18.746094 21.601562 L 18.746094 18 L 22.492188 18 C 23.871094 18 24.992188 16.925781 24.992188 15.601562 L 24.992188 8.398438 C 24.992188 7.074219 23.871094 6 22.492188 6 Z M 22.492188 15.601562 L 16.246094 15.601562 L 16.246094 20.402344 L 16.25 20.402344 L 16.25 21.601562 L 8.75 21.601562 L 8.75 15.601562 L 2.507812 15.601562 L 2.507812 8.398438 L 8.75 8.398438 L 8.75 2.398438 L 16.246094 2.398438 L 16.246094 8.398438 L 22.492188 8.398438 Z M 22.492188 15.601562 "/>
<path style=" stroke:none;fill-rule:nonzero;fill:rgb(100%,100%,100%);fill-opacity:1;" d="M 7.867188 14.316406 L 7.867188 9.683594 L 4.390625 12 Z M 17.132812 14.316406 L 20.609375 12 L 17.132812 9.683594 Z M 10.183594 7.367188 L 14.816406 7.367188 L 12.5 3.890625 Z M 12.5 20.109375 L 14.816406 16.632812 L 10.183594 16.632812 Z M 12.5 20.109375 "/>
<path style=" stroke:none;fill-rule:nonzero;fill:rgb(100%,100%,100%);fill-opacity:1;" d="M 12.5 14.28125 C 13.761719 14.28125 14.78125 13.261719 14.78125 12 C 14.78125 10.738281 13.761719 9.71875 12.5 9.71875 C 11.238281 9.71875 10.21875 10.738281 10.21875 12 C 10.21875 13.261719 11.238281 14.28125 12.5 14.28125 Z M 12.5 14.28125 "/>
</g>
</svg>
