<?xml version="1.0" encoding="UTF-8"?>
<svg xmlns="http://www.w3.org/2000/svg" xmlns:xlink="http://www.w3.org/1999/xlink" width="25px" height="24px" viewBox="0 0 25 24" version="1.1">
<g id="surface1">
<path style=" stroke:none;fill-rule:nonzero;fill:rgb(100%,100%,100%);fill-opacity:1;" d="M 21.5 15.210938 L 19.378906 17.246094 L 16.207031 14.203125 L 14.792969 15.558594 L 17.964844 18.605469 L 15.84375 20.640625 L 21.5 20.640625 Z M 3.5 8.789062 L 5.621094 6.753906 L 8.792969 9.796875 L 10.207031 8.441406 L 7.035156 5.394531 L 9.15625 3.359375 L 3.5 3.359375 Z M 21.5 3.359375 L 15.84375 3.359375 L 17.964844 5.394531 L 14.792969 8.441406 L 16.207031 9.796875 L 19.378906 6.753906 L 21.5 8.789062 Z M 3.5 20.640625 L 9.15625 20.640625 L 7.035156 18.605469 L 10.207031 15.558594 L 8.792969 14.203125 L 5.621094 17.246094 L 3.5 15.210938 Z M 3.5 20.640625 "/>
</g>
</svg>
