<?xml version="1.0" encoding="UTF-8"?>
<svg xmlns="http://www.w3.org/2000/svg" xmlns:xlink="http://www.w3.org/1999/xlink" width="25px" height="24px" viewBox="0 0 25 24" version="1.1">
<g id="surface1">
<path style=" stroke:none;fill-rule:nonzero;fill:rgb(100%,100%,100%);fill-opacity:1;" d="M 12.5 9 C 10.78125 9 9.375 10.351562 9.375 12 C 9.375 13.648438 10.78125 15 12.5 15 C 14.21875 15 15.625 13.648438 15.625 12 C 15.625 10.351562 14.21875 9 12.5 9 Z M 21.875 9 C 20.15625 9 18.75 10.351562 18.75 12 C 18.75 13.648438 20.15625 15 21.875 15 C 23.59375 15 25 13.648438 25 12 C 25 10.351562 23.59375 9 21.875 9 Z M 3.125 9 C 1.40625 9 0 10.351562 0 12 C 0 13.648438 1.40625 15 3.125 15 C 4.84375 15 6.25 13.648438 6.25 12 C 6.25 10.351562 4.84375 9 3.125 9 Z M 3.125 9 "/>
</g>
</svg>
