<?xml version="1.0" encoding="UTF-8"?>
<svg xmlns="http://www.w3.org/2000/svg" xmlns:xlink="http://www.w3.org/1999/xlink" width="25px" height="24px" viewBox="0 0 25 24" version="1.1">
<g id="surface1">
<path style=" stroke:none;fill-rule:nonzero;fill:rgb(100%,100%,100%);fill-opacity:1;" d="M 16.667969 2 L 8.332031 2 C 4.886719 2 2.082031 4.691406 2.082031 8 L 2.082031 21 C 2.082031 21.265625 2.191406 21.519531 2.386719 21.707031 C 2.582031 21.894531 2.847656 22 3.125 22 L 16.667969 22 C 20.113281 22 22.917969 19.308594 22.917969 16 L 22.917969 8 C 22.917969 4.691406 20.113281 2 16.667969 2 Z M 20.832031 16 C 20.832031 18.207031 18.964844 20 16.667969 20 L 4.167969 20 L 4.167969 8 C 4.167969 5.792969 6.035156 4 8.332031 4 L 16.667969 4 C 18.964844 4 20.832031 5.792969 20.832031 8 Z M 20.832031 16 "/>
<path style=" stroke:none;fill-rule:nonzero;fill:rgb(100%,100%,100%);fill-opacity:1;" d="M 13.542969 7 L 11.457031 7 L 11.457031 11 L 7.292969 11 L 7.292969 13 L 11.457031 13 L 11.457031 17 L 13.542969 17 L 13.542969 13 L 17.707031 13 L 17.707031 11 L 13.542969 11 Z M 13.542969 7 "/>
</g>
</svg>
