<?xml version="1.0" encoding="UTF-8"?>
<svg xmlns="http://www.w3.org/2000/svg" xmlns:xlink="http://www.w3.org/1999/xlink" width="25px" height="24px" viewBox="0 0 25 24" version="1.1">
<g id="surface1">
<path style=" stroke:none;fill-rule:nonzero;fill:rgb(100%,100%,100%);fill-opacity:1;" d="M 12.5 16.800781 C 15.257812 16.800781 17.5 14.648438 17.5 12 C 17.5 9.351562 15.257812 7.199219 12.5 7.199219 C 9.742188 7.199219 7.5 9.351562 7.5 12 C 7.5 14.648438 9.742188 16.800781 12.5 16.800781 Z M 12.5 9.601562 C 13.855469 9.601562 15 10.699219 15 12 C 15 13.300781 13.855469 14.398438 12.5 14.398438 C 11.144531 14.398438 10 13.300781 10 12 C 10 10.699219 11.144531 9.601562 12.5 9.601562 Z M 12.5 9.601562 "/>
<path style=" stroke:none;fill-rule:nonzero;fill:rgb(100%,100%,100%);fill-opacity:1;" d="M 1.054688 16.964844 L 2.304688 19.039062 C 2.96875 20.140625 4.566406 20.550781 5.71875 19.914062 L 6.378906 19.546875 C 7.101562 20.09375 7.902344 20.542969 8.75 20.882812 L 8.75 21.601562 C 8.75 22.921875 9.871094 24 11.25 24 L 13.75 24 C 15.128906 24 16.25 22.921875 16.25 21.601562 L 16.25 20.882812 C 17.097656 20.542969 17.898438 20.09375 18.621094 19.550781 L 19.28125 19.917969 C 20.433594 20.550781 22.027344 20.140625 22.695312 19.039062 L 23.945312 16.964844 C 24.273438 16.414062 24.363281 15.757812 24.195312 15.144531 C 24.023438 14.527344 23.605469 14.003906 23.03125 13.6875 L 22.398438 13.335938 C 22.53125 12.449219 22.53125 11.550781 22.398438 10.667969 L 23.03125 10.316406 C 23.601562 9.996094 24.023438 9.472656 24.191406 8.859375 C 24.363281 8.242188 24.273438 7.589844 23.945312 7.039062 L 22.695312 4.964844 C 22.03125 3.859375 20.433594 3.445312 19.28125 4.085938 L 18.621094 4.453125 C 17.898438 3.90625 17.097656 3.457031 16.25 3.117188 L 16.25 2.398438 C 16.25 1.078125 15.128906 0 13.75 0 L 11.25 0 C 9.871094 0 8.75 1.078125 8.75 2.398438 L 8.75 3.117188 C 7.902344 3.457031 7.101562 3.90625 6.378906 4.449219 L 5.71875 4.082031 C 4.5625 3.445312 2.96875 3.859375 2.304688 4.960938 L 1.054688 7.035156 C 0.726562 7.589844 0.636719 8.242188 0.804688 8.859375 C 0.976562 9.472656 1.394531 9.996094 1.96875 10.316406 L 2.601562 10.664062 C 2.464844 11.550781 2.464844 12.449219 2.601562 13.332031 L 1.96875 13.683594 C 1.394531 14.003906 0.976562 14.527344 0.808594 15.140625 C 0.636719 15.757812 0.726562 16.410156 1.054688 16.964844 Z M 5.214844 13.652344 C 5.074219 13.113281 5 12.558594 5 12 C 5 11.445312 5.074219 10.890625 5.210938 10.347656 C 5.277344 10.09375 5.257812 9.828125 5.152344 9.585938 C 5.042969 9.347656 4.859375 9.148438 4.625 9.015625 L 3.222656 8.238281 L 4.46875 6.160156 L 5.898438 6.957031 C 6.132812 7.085938 6.40625 7.140625 6.671875 7.109375 C 6.941406 7.078125 7.191406 6.964844 7.386719 6.785156 C 8.230469 6.015625 9.25 5.4375 10.363281 5.105469 C 10.621094 5.03125 10.84375 4.878906 11.003906 4.671875 C 11.164062 4.46875 11.25 4.21875 11.25 3.960938 L 11.25 2.398438 L 13.75 2.398438 L 13.75 3.960938 C 13.75 4.21875 13.835938 4.46875 13.996094 4.671875 C 14.15625 4.878906 14.378906 5.03125 14.636719 5.105469 C 15.75 5.441406 16.769531 6.015625 17.613281 6.785156 C 17.808594 6.964844 18.058594 7.078125 18.328125 7.109375 C 18.59375 7.140625 18.867188 7.085938 19.101562 6.957031 L 20.53125 6.164062 L 21.78125 8.238281 L 20.375 9.015625 C 20.140625 9.148438 19.957031 9.347656 19.847656 9.585938 C 19.742188 9.828125 19.722656 10.09375 19.789062 10.347656 C 19.925781 10.890625 20 11.445312 20 12 C 20 12.554688 19.925781 13.109375 19.785156 13.652344 C 19.71875 13.90625 19.742188 14.171875 19.847656 14.414062 C 19.953125 14.652344 20.140625 14.851562 20.375 14.984375 L 21.777344 15.761719 L 20.53125 17.835938 L 19.101562 17.042969 C 18.867188 16.914062 18.59375 16.859375 18.328125 16.890625 C 18.058594 16.921875 17.808594 17.035156 17.613281 17.214844 C 16.769531 17.984375 15.75 18.5625 14.636719 18.894531 C 14.378906 18.96875 14.15625 19.121094 13.996094 19.328125 C 13.835938 19.53125 13.75 19.78125 13.75 20.039062 L 13.753906 21.601562 L 11.25 21.601562 L 11.25 20.039062 C 11.25 19.78125 11.164062 19.53125 11.003906 19.328125 C 10.84375 19.121094 10.621094 18.96875 10.363281 18.894531 C 9.25 18.558594 8.230469 17.984375 7.386719 17.214844 C 7.191406 17.035156 6.941406 16.921875 6.671875 16.890625 C 6.402344 16.859375 6.132812 16.914062 5.898438 17.042969 L 4.46875 17.839844 L 3.21875 15.765625 L 4.625 14.984375 C 4.859375 14.851562 5.042969 14.652344 5.152344 14.414062 C 5.257812 14.171875 5.28125 13.90625 5.214844 13.652344 Z M 5.214844 13.652344 "/>
</g>
</svg>
