<svg width="25" height="24" viewBox="0 0 25 24" fill="none" xmlns="http://www.w3.org/2000/svg">
<path d="M21.47 6.20158L13.22 1.68752C12.9996 1.56572 12.7518 1.50183 12.5 1.50183C12.2482 1.50183 12.0004 1.56572 11.78 1.68752L3.53 6.20345C3.2944 6.33237 3.09772 6.52217 2.96052 6.75304C2.82331 6.98391 2.75061 7.24739 2.75 7.51595V16.4822C2.75061 16.7508 2.82331 17.0142 2.96052 17.2451C3.09772 17.476 3.2944 17.6658 3.53 17.7947L11.78 22.3106C12.0004 22.4324 12.2482 22.4963 12.5 22.4963C12.7518 22.4963 12.9996 22.4324 13.22 22.3106L21.47 17.7947C21.7056 17.6658 21.9023 17.476 22.0395 17.2451C22.1767 17.0142 22.2494 16.7508 22.25 16.4822V7.51689C22.2499 7.24785 22.1774 6.98379 22.0402 6.75238C21.903 6.52096 21.706 6.33072 21.47 6.20158ZM12.5 3.00002L20.0319 7.12502L12.5 11.25L4.96812 7.12502L12.5 3.00002ZM4.25 8.43752L11.75 12.5419V20.5847L4.25 16.4831V8.43752ZM13.25 20.5847V12.5456L20.75 8.43752V16.4794L13.25 20.5847Z" fill="#343330"/>
</svg>
