<?xml version="1.0" encoding="utf-8"?>
<svg width="25" height="24" viewBox="0 0 25 24" fill="none" xmlns="http://www.w3.org/2000/svg">
  <path d="M 22.494 5.999 L 18.747 5.999 L 18.747 2.398 C 18.747 1.074 17.626 -0.003 16.248 -0.003 L 8.751 -0.003 C 7.374 -0.003 6.254 1.074 6.254 2.398 L 6.254 5.999 L 2.507 5.999 C 1.128 5.999 0.007 7.075 0.007 8.399 L 0.007 15.601 C 0.007 16.925 1.128 18.001 2.507 18.001 L 6.254 18.001 L 6.254 21.602 C 6.254 22.926 7.374 24.003 8.751 24.003 L 16.248 24.003 C 17.626 24.003 18.747 22.926 18.747 21.602 L 18.747 18.001 L 22.494 18.001 C 23.872 18.001 24.993 16.925 24.993 15.601 L 24.993 8.399 C 24.993 7.075 23.872 5.999 22.494 5.999 Z M 22.494 15.601 L 16.248 15.601 L 16.248 20.402 L 16.249 20.402 L 16.249 21.602 L 8.751 21.602 L 8.751 15.601 L 2.507 15.601 L 2.507 8.399 L 8.751 8.399 L 8.751 2.398 L 16.248 2.398 L 16.248 8.399 L 22.494 8.399 L 22.494 15.601 Z" fill="black" style=""/>
  <path d="M 7.866 14.317 L 7.866 9.683 L 4.391 12 L 7.866 14.317 Z M 17.134 14.317 L 20.609 12 L 17.134 9.683 L 17.134 14.317 Z M 10.183 7.366 L 14.817 7.366 L 12.5 3.891 L 10.183 7.366 Z M 12.5 20.109 L 14.817 16.634 L 10.183 16.634 L 12.5 20.109 Z" fill="black" style=""/>
  <path d="M 12.5 14.281 C 13.76 14.281 14.781 13.26 14.781 12 C 14.781 10.74 13.76 9.719 12.5 9.719 C 11.24 9.719 10.219 10.74 10.219 12 C 10.219 13.26 11.24 14.281 12.5 14.281 Z" fill="black" style=""/>
</svg>