<svg width="25" height="24" viewBox="0 0 19 20" fill="none" xmlns="http://www.w3.org/2000/svg">
<path d="M9.5 14C11.706 14 13.5 12.206 13.5 10C13.5 7.794 11.706 6 9.5 6C7.294 6 5.5 7.794 5.5 10C5.5 12.206 7.294 14 9.5 14ZM9.5 8C10.584 8 11.5 8.916 11.5 10C11.5 11.084 10.584 12 9.5 12C8.416 12 7.5 11.084 7.5 10C7.5 8.916 8.416 8 9.5 8Z" fill="black"/>
<path d="M0.344978 14.136L1.34498 15.866C1.87598 16.783 3.15398 17.127 4.07498 16.596L4.60398 16.29C5.18252 16.7451 5.82039 17.1192 6.49998 17.402V18C6.49998 19.103 7.39698 20 8.49998 20H10.5C11.603 20 12.5 19.103 12.5 18V17.402C13.1793 17.1192 13.8172 16.7454 14.396 16.291L14.925 16.597C15.848 17.127 17.123 16.785 17.656 15.866L18.655 14.137C18.92 13.6777 18.9919 13.132 18.8548 12.6197C18.7177 12.1075 18.3829 11.6706 17.924 11.405L17.419 11.113C17.5263 10.3756 17.5263 9.62645 17.419 8.889L17.924 8.597C18.3827 8.33123 18.7174 7.89433 18.8544 7.38216C18.9914 6.86998 18.9197 6.32436 18.655 5.865L17.656 4.136C17.125 3.216 15.848 2.871 14.925 3.404L14.396 3.71C13.8174 3.25491 13.1796 2.8808 12.5 2.598V2C12.5 0.897 11.603 0 10.5 0H8.49998C7.39698 0 6.49998 0.897 6.49998 2V2.598C5.82062 2.88084 5.1828 3.25459 4.60398 3.709L4.07498 3.403C3.15098 2.872 1.87498 3.216 1.34398 4.135L0.344978 5.864C0.0799601 6.3233 0.00808924 6.86901 0.145153 7.38126C0.282216 7.89352 0.617004 8.33042 1.07598 8.596L1.58098 8.888C1.47321 9.62508 1.47321 10.3739 1.58098 11.111L1.07598 11.403C0.617139 11.669 0.282506 12.106 0.145471 12.6184C0.00843482 13.1307 0.0801823 13.6765 0.344978 14.136ZM3.67098 11.378C3.55806 10.9273 3.50064 10.4646 3.49998 10C3.49998 9.538 3.55798 9.074 3.66998 8.622C3.72272 8.41133 3.70537 8.18921 3.62056 7.98928C3.53576 7.78935 3.38811 7.6225 3.19998 7.514L2.07698 6.864L3.07498 5.135L4.21998 5.797C4.4067 5.90505 4.62344 5.94962 4.83765 5.92401C5.05185 5.89841 5.25198 5.80401 5.40798 5.655C6.0845 5.01156 6.90031 4.53281 7.79198 4.256C7.9968 4.19347 8.17614 4.06683 8.30359 3.89473C8.43105 3.72263 8.49989 3.51416 8.49998 3.3V2H10.5V3.3C10.5001 3.51416 10.5689 3.72263 10.6964 3.89473C10.8238 4.06683 11.0032 4.19347 11.208 4.256C12.0995 4.53321 12.9152 5.0119 13.592 5.655C13.7481 5.80372 13.9482 5.89792 14.1624 5.92352C14.3765 5.94911 14.5932 5.90473 14.78 5.797L15.924 5.136L16.924 6.865L15.8 7.514C15.612 7.62262 15.4644 7.78948 15.3796 7.98938C15.2948 8.18927 15.2774 8.41133 15.33 8.622C15.442 9.074 15.5 9.538 15.5 10C15.5 10.461 15.442 10.925 15.329 11.378C15.2765 11.5888 15.2941 11.8109 15.3791 12.0108C15.464 12.2107 15.6118 12.3775 15.8 12.486L16.923 13.135L15.925 14.864L14.78 14.203C14.5933 14.0948 14.3765 14.0501 14.1623 14.0757C13.948 14.1013 13.7479 14.1958 13.592 14.345C12.9155 14.9884 12.0996 15.4672 11.208 15.744C11.0032 15.8065 10.8238 15.9332 10.6964 16.1053C10.5689 16.2774 10.5001 16.4858 10.5 16.7L10.502 18H8.49998V16.7C8.49989 16.4858 8.43105 16.2774 8.30359 16.1053C8.17614 15.9332 7.9968 15.8065 7.79198 15.744C6.90048 15.4668 6.08476 14.9881 5.40798 14.345C5.25228 14.1954 5.05203 14.1007 4.83763 14.0753C4.62322 14.0498 4.40636 14.095 4.21998 14.204L3.07598 14.866L2.07598 13.137L3.19998 12.486C3.38817 12.3775 3.53593 12.2107 3.62091 12.0108C3.70588 11.8109 3.72346 11.5888 3.67098 11.378Z" fill="black"/>
</svg>
