<svg width="40" height="40" viewBox="0 0 40 40" fill="none" xmlns="http://www.w3.org/2000/svg">
<path d="M14.9997 33.3333H24.9997V36.6667H14.9997V33.3333ZM28.1763 22.8533C29.893 20.8433 31.6663 18.765 31.6663 15C31.6663 8.56834 26.4313 3.33334 19.9997 3.33334C13.568 3.33334 8.33301 8.56834 8.33301 15C8.33301 18.8083 10.1113 20.88 11.8347 22.8833C12.4313 23.58 13.0497 24.3017 13.6413 25.1317C13.8813 25.475 14.2747 26.7917 14.6263 28.3333H13.333V31.6667H26.6663V28.3333H25.3763C25.7313 26.7883 26.1263 25.4683 26.3647 25.125C26.9513 24.2867 27.5747 23.5583 28.1763 22.8533ZM23.6363 23.2083C22.913 24.2367 22.3097 26.6667 21.9597 28.3333H18.0413C17.693 26.6633 17.088 24.2283 16.3563 23.2C15.7309 22.3406 15.0658 21.5108 14.363 20.7133C12.7397 18.8233 11.6663 17.5733 11.6663 15C11.6663 10.405 15.4047 6.66668 19.9997 6.66668C24.5947 6.66668 28.333 10.405 28.333 15C28.333 17.535 27.2613 18.79 25.6413 20.6883C25.0197 21.4183 24.3147 22.2433 23.6363 23.2083Z" fill="#821DB7"/>
</svg>
