<svg xmlns="http://www.w3.org/2000/svg" xmlns:xlink="http://www.w3.org/1999/xlink" width="100" zoomAndPan="magnify" viewBox="0 0 75 74.999997" height="100" preserveAspectRatio="xMidYMid meet" version="1.0"><path fill="#821db7" d="M 28.460938 68.125 L 46.648438 68.125 L 46.648438 74.1875 L 28.460938 74.1875 Z M 52.425781 49.0625 C 55.546875 45.410156 58.773438 41.628906 58.773438 34.78125 C 58.773438 23.082031 49.253906 13.5625 37.554688 13.5625 C 25.855469 13.5625 16.335938 23.082031 16.335938 34.78125 C 16.335938 41.707031 19.570312 45.476562 22.703125 49.117188 C 23.789062 50.386719 24.914062 51.699219 25.992188 53.207031 C 26.425781 53.832031 27.144531 56.226562 27.78125 59.03125 L 25.429688 59.03125 L 25.429688 65.09375 L 49.679688 65.09375 L 49.679688 59.03125 L 47.332031 59.03125 C 47.980469 56.222656 48.699219 53.820312 49.132812 53.195312 C 50.199219 51.671875 51.332031 50.347656 52.425781 49.0625 Z M 44.167969 49.710938 C 42.855469 51.582031 41.757812 56 41.121094 59.03125 L 33.992188 59.03125 C 33.359375 55.992188 32.257812 51.566406 30.929688 49.695312 C 29.792969 48.132812 28.582031 46.621094 27.304688 45.171875 C 24.351562 41.734375 22.398438 39.460938 22.398438 34.78125 C 22.398438 26.425781 29.199219 19.625 37.554688 19.625 C 45.914062 19.625 52.710938 26.425781 52.710938 34.78125 C 52.710938 39.390625 50.761719 41.675781 47.816406 45.125 C 46.683594 46.453125 45.402344 47.953125 44.167969 49.710938 Z M 44.167969 49.710938 " fill-opacity="1" fill-rule="nonzero"/><path stroke-linecap="round" transform="matrix(0.563895, 0.494492, -0.494492, 0.563895, 7.265082, 13.774636)" fill="none" stroke-linejoin="miter" d="M 2.998857 2.999977 L 14.288983 2.998471 " stroke="#821db7" stroke-width="6" stroke-opacity="1" stroke-miterlimit="4"/><path stroke-linecap="round" transform="matrix(-0.0114643, -0.749912, 0.749912, -0.0114643, 35.397992, 11.055211)" fill="none" stroke-linejoin="miter" d="M 3.002068 2.999959 L 10.086246 2.998871 " stroke="#821db7" stroke-width="6" stroke-opacity="1" stroke-miterlimit="4"/><path stroke-linecap="round" transform="matrix(0.382405, -0.645187, 0.645187, 0.382405, 49.607085, 11.973458)" fill="none" stroke-linejoin="miter" d="M 3.002791 3.00074 L 11.514434 2.999208 " stroke="#821db7" stroke-width="6" stroke-opacity="1" stroke-miterlimit="4"/><path stroke-linecap="round" transform="matrix(-0.405809, -0.630729, 0.630729, -0.405809, 21.944082, 14.718845)" fill="none" stroke-linejoin="miter" d="M 3.001032 2.998041 L 12.449581 3.00165 " stroke="#821db7" stroke-width="6" stroke-opacity="1" stroke-miterlimit="4"/><path stroke-linecap="round" transform="matrix(0.53033, -0.53033, 0.53033, 0.53033, 57.27676, 21.038752)" fill="none" stroke-linejoin="miter" d="M 2.998096 2.998682 L 14.289708 2.998682 " stroke="#821db7" stroke-width="6" stroke-opacity="1" stroke-miterlimit="4"/></svg>