<svg xmlns="http://www.w3.org/2000/svg" xmlns:xlink="http://www.w3.org/1999/xlink" width="100" zoomAndPan="magnify" viewBox="0 0 75 74.999997" height="100" preserveAspectRatio="xMidYMid meet" version="1.0"><defs><clipPath id="f56ac69481"><path d="M 9.640625 17.851562 L 73 17.851562 L 73 71 L 9.640625 71 Z M 9.640625 17.851562 " clip-rule="nonzero"/></clipPath><clipPath id="71bc344755"><path d="M 1.355469 9.5 L 38 9.5 L 38 64.699219 L 1.355469 64.699219 Z M 1.355469 9.5 " clip-rule="nonzero"/></clipPath><clipPath id="5277cb1882"><path d="M 23 9.5 L 46.730469 9.5 L 46.730469 36 L 23 36 Z M 23 9.5 " clip-rule="nonzero"/></clipPath></defs><path fill="#821db7" d="M 58.074219 17.453125 C 61.894531 17.453125 64.992188 14.339844 64.992188 10.5 C 64.992188 6.65625 61.894531 3.542969 58.074219 3.542969 C 54.253906 3.542969 51.15625 6.65625 51.15625 10.5 C 51.15625 14.339844 54.253906 17.453125 58.074219 17.453125 Z M 58.074219 17.453125 " fill-opacity="1" fill-rule="nonzero"/><g clip-path="url(#f56ac69481)"><path fill="#821db7" d="M 53.839844 34.738281 C 54.636719 35.921875 55.773438 36.839844 57.105469 37.359375 C 58.433594 37.875 59.890625 37.964844 61.273438 37.621094 L 72.746094 34.738281 L 71.078125 27.992188 L 59.605469 30.875 L 54.835938 23.683594 C 53.8125 22.152344 52.230469 21.082031 50.429688 20.714844 L 37.125 18.039062 C 35.640625 17.738281 34.09375 17.9375 32.726562 18.609375 C 31.363281 19.28125 30.261719 20.382812 29.582031 21.746094 L 23.84375 33.28125 L 30.03125 36.394531 L 35.769531 24.859375 L 42.574219 26.230469 L 24.980469 55.710938 L 9.640625 55.710938 L 9.640625 62.667969 L 24.980469 62.667969 C 27.394531 62.667969 29.667969 61.375 30.914062 59.289062 L 37.546875 48.171875 L 55.429688 51.769531 L 61.714844 70.722656 L 68.273438 68.519531 L 61.992188 49.574219 C 61.605469 48.410156 60.917969 47.371094 60.007812 46.558594 C 59.09375 45.746094 57.980469 45.191406 56.785156 44.945312 L 46.269531 42.835938 L 52.402344 32.5625 Z M 53.839844 34.738281 " fill-opacity="1" fill-rule="nonzero"/></g><g clip-path="url(#71bc344755)"><path fill="#fec613" d="M 15.882812 64.699219 C 16.175781 64.699219 16.40625 64.578125 16.523438 64.347656 L 30.160156 43.050781 C 30.21875 42.933594 30.277344 42.761719 30.277344 42.644531 C 30.277344 42.527344 30.21875 42.410156 30.160156 42.296875 C 30.042969 42.0625 29.75 41.886719 29.457031 41.886719 L 22.375 41.886719 C 22.4375 39.679688 22.667969 37.582031 23.082031 35.605469 C 25.007812 22.628906 27.996094 10.875 37.828125 9.539062 C 34.371094 9.65625 30.976562 10.46875 27.9375 11.808594 C 19.6875 15.472656 13.425781 22.980469 10.847656 32.402344 C 9.96875 35.542969 9.503906 38.746094 9.386719 41.886719 L 2.1875 41.886719 C 1.898438 41.886719 1.660156 42.0625 1.484375 42.296875 C 1.367188 42.527344 1.367188 42.820312 1.484375 43.113281 L 15.179688 64.347656 C 15.355469 64.578125 15.589844 64.699219 15.882812 64.699219 Z M 15.882812 64.699219 " fill-opacity="1" fill-rule="nonzero"/></g><g clip-path="url(#5277cb1882)"><path fill="#edb20a" d="M 23.082031 35.488281 C 23.78125 31.648438 25.125 28.273438 27 25.421875 C 30.21875 20.304688 36.246094 16.925781 41.691406 14.25 C 42.332031 13.960938 42.917969 13.609375 43.503906 13.378906 C 44.441406 12.914062 45.375 12.503906 46.308594 11.925781 C 46.546875 11.808594 46.722656 11.515625 46.722656 11.222656 C 46.722656 11.222656 46.722656 11.167969 46.722656 11.167969 C 46.660156 10.875 46.484375 10.585938 46.191406 10.527344 C 45.023438 10.179688 43.796875 9.886719 42.621094 9.710938 C 41.046875 9.480469 39.464844 9.425781 37.828125 9.480469 C 27.9375 10.761719 24.953125 22.574219 23.082031 35.488281 Z M 23.082031 35.488281 " fill-opacity="1" fill-rule="nonzero"/></g></svg>