<svg xmlns="http://www.w3.org/2000/svg" xmlns:xlink="http://www.w3.org/1999/xlink" width="100" zoomAndPan="magnify" viewBox="0 0 75 74.999997" height="100" preserveAspectRatio="xMidYMid meet" version="1.0"><defs><clipPath id="6079603298"><path d="M 3 47 L 18 47 L 18 67.5 L 3 67.5 Z M 3 47 " clip-rule="nonzero"/></clipPath><clipPath id="f4a81bc743"><path d="M 9 7.5 L 59 7.5 L 59 64 L 9 64 Z M 9 7.5 " clip-rule="nonzero"/></clipPath></defs><path fill="#821db7" d="M 69.527344 29.578125 C 70.488281 22.160156 65.464844 15.34375 58.328125 14.378906 C 56.722656 14.160156 57.027344 11.730469 58.660156 11.933594 C 67.128906 13.082031 73.101562 21.140625 71.972656 29.894531 C 71.761719 31.527344 69.320312 31.195312 69.527344 29.578125 Z M 69.527344 29.578125 " fill-opacity="1" fill-rule="nonzero"/><path fill="#821db7" d="M 64.257812 28.785156 C 64.691406 26.542969 64.21875 24.378906 62.929688 22.695312 C 61.660156 21.039062 59.738281 20.042969 57.519531 19.882812 C 55.878906 19.765625 56.089844 17.289062 57.695312 17.425781 C 60.628906 17.632812 63.179688 18.976562 64.886719 21.195312 C 66.613281 23.441406 67.25 26.304688 66.679688 29.25 C 66.367188 30.875 63.949219 30.378906 64.257812 28.785156 Z M 64.257812 28.785156 " fill-opacity="1" fill-rule="nonzero"/><g clip-path="url(#6079603298)"><path fill="#821db7" d="M 16.074219 67.136719 C 7.640625 65.742188 1.902344 57.507812 3.289062 48.796875 C 3.546875 47.171875 5.976562 47.582031 5.722656 49.179688 C 4.550781 56.5625 9.378906 63.527344 16.476562 64.703125 C 18.089844 64.96875 17.679688 67.425781 16.074219 67.136719 Z M 16.074219 67.136719 " fill-opacity="1" fill-rule="nonzero"/></g><path fill="#821db7" d="M 17.199219 61.679688 C 14.273438 61.382812 11.757812 59.96875 10.121094 57.699219 C 8.460938 55.402344 7.90625 52.523438 8.5625 49.59375 C 8.917969 47.996094 11.324219 48.542969 10.96875 50.128906 C 10.46875 52.359375 10.878906 54.535156 12.117188 56.253906 C 13.339844 57.945312 15.230469 59 17.449219 59.226562 C 19.046875 59.386719 18.847656 61.820312 17.199219 61.679688 Z M 17.199219 61.679688 " fill-opacity="1" fill-rule="nonzero"/><g clip-path="url(#f4a81bc743)"><path fill="#821db7" d="M 42.507812 12.742188 C 43.210938 17.351562 43.367188 18.3125 43.664062 23.386719 C 43.949219 28.253906 44.148438 30.769531 44.667969 33.65625 C 45.308594 37.199219 46.324219 41.855469 47.464844 41.664062 C 48.578125 41.476562 49.324219 36.292969 49.941406 34.515625 C 51.386719 30.394531 53.109375 28.433594 54.136719 27.699219 C 54.914062 27.144531 57.015625 26.203125 58.171875 27.226562 C 58.527344 27.542969 58.96875 28.1875 58.667969 28.964844 C 57.703125 31.429688 56.875 32.925781 56.085938 35.921875 C 53.84375 44.4375 54.464844 46.296875 52.707031 51.570312 C 51.15625 56.226562 49.292969 59.359375 44.207031 61.789062 C 39.0625 64.246094 34.511719 64.582031 29.589844 62.015625 C 26.5 60.40625 24.707031 58.6875 21 50.878906 C 18.3125 45.210938 19.105469 46.777344 16.601562 41.273438 C 14.089844 35.769531 12.824219 34.699219 10.441406 29.835938 C 9.816406 28.554688 8.589844 26.03125 10.519531 24.949219 C 12.691406 23.730469 14.246094 26.347656 14.558594 26.847656 C 17.148438 31.015625 17.121094 31.796875 19.707031 35.476562 C 20.707031 36.90625 22.488281 39.105469 22.902344 38.910156 C 23.585938 38.585938 20.734375 32.34375 18.390625 25.609375 C 17.71875 23.679688 17.421875 22.738281 16.410156 20.144531 C 16.140625 19.453125 14.75 15.703125 17.148438 14.820312 C 19.40625 13.988281 20.6875 16.359375 21.25 17.523438 C 23.460938 22.078125 24.09375 23.613281 25.242188 26.539062 C 26.113281 28.757812 28.761719 34.410156 29.511719 34.351562 C 30.527344 34.273438 28.628906 27.15625 27.796875 24.210938 C 26.648438 20.710938 25.875 17.671875 25.25 13.039062 C 25.128906 12.15625 24.710938 8.417969 27.035156 8.027344 C 29.84375 7.550781 30.792969 11.09375 31.359375 12.902344 C 32.910156 17.867188 33.1875 19.5625 34.261719 23.539062 C 34.921875 25.996094 36.328125 32.296875 37.046875 32.171875 C 37.90625 32.019531 37.488281 27.039062 37.292969 24.90625 C 36.847656 20.054688 36.824219 17.167969 37.070312 13.136719 C 37.222656 10.722656 38.019531 9.003906 39.5 8.871094 C 41.625 8.679688 42.347656 11.6875 42.507812 12.742188 Z M 42.507812 12.742188 " fill-opacity="1" fill-rule="nonzero"/></g></svg>