<svg xmlns="http://www.w3.org/2000/svg" xmlns:xlink="http://www.w3.org/1999/xlink" width="100" zoomAndPan="magnify" viewBox="0 0 75 74.999997" height="100" preserveAspectRatio="xMidYMid meet" version="1.0"><defs><clipPath id="a4ce820d1c"><path d="M 14.71875 8.105469 L 60.46875 8.105469 L 60.46875 66.605469 L 14.71875 66.605469 Z M 14.71875 8.105469 " clip-rule="nonzero"/></clipPath></defs><g clip-path="url(#a4ce820d1c)"><path fill="#821db7" d="M 55.390625 30.820312 L 55.390625 26 C 55.390625 16.132812 47.359375 8.105469 37.496094 8.105469 C 27.632812 8.105469 19.601562 16.132812 19.601562 26 L 19.601562 30.820312 C 16.898438 30.894531 14.726562 33.09375 14.726562 35.8125 L 14.726562 61.878906 C 14.726562 62.207031 14.761719 62.535156 14.824219 62.855469 C 14.886719 63.179688 14.984375 63.492188 15.109375 63.796875 C 15.234375 64.097656 15.390625 64.386719 15.570312 64.660156 C 15.753906 64.933594 15.960938 65.1875 16.195312 65.417969 C 16.425781 65.652344 16.679688 65.859375 16.953125 66.042969 C 17.226562 66.226562 17.515625 66.378906 17.816406 66.503906 C 18.121094 66.632812 18.433594 66.726562 18.757812 66.789062 C 19.078125 66.855469 19.40625 66.886719 19.734375 66.886719 L 55.253906 66.886719 C 55.582031 66.886719 55.910156 66.855469 56.230469 66.789062 C 56.554688 66.726562 56.867188 66.632812 57.171875 66.503906 C 57.476562 66.378906 57.761719 66.226562 58.035156 66.042969 C 58.308594 65.859375 58.5625 65.652344 58.796875 65.421875 C 59.027344 65.1875 59.234375 64.933594 59.417969 64.660156 C 59.601562 64.386719 59.753906 64.097656 59.882812 63.796875 C 60.007812 63.492188 60.101562 63.179688 60.167969 62.855469 C 60.230469 62.535156 60.261719 62.207031 60.261719 61.878906 L 60.261719 35.8125 C 60.261719 33.09375 58.089844 30.894531 55.390625 30.820312 Z M 41.589844 45.246094 C 41.566406 45.398438 41.480469 45.753906 41.472656 45.78125 C 41.167969 46.839844 40.4375 47.710938 39.488281 48.238281 L 41.097656 55.089844 C 41.144531 55.234375 41.15625 55.382812 41.132812 55.53125 C 41.109375 55.679688 41.054688 55.816406 40.96875 55.9375 C 40.882812 56.0625 40.773438 56.160156 40.636719 56.230469 C 40.503906 56.300781 40.363281 56.339844 40.210938 56.34375 L 34.886719 56.34375 C 34.734375 56.339844 34.59375 56.300781 34.460938 56.230469 C 34.328125 56.160156 34.21875 56.0625 34.128906 55.9375 C 34.042969 55.816406 33.988281 55.679688 33.964844 55.53125 C 33.945312 55.382812 33.957031 55.234375 34.003906 55.089844 L 35.5 48.238281 C 34.550781 47.710938 33.820312 46.839844 33.515625 45.78125 C 33.507812 45.753906 33.421875 45.398438 33.398438 45.246094 C 33.371094 45.054688 33.355469 44.859375 33.355469 44.667969 C 33.355469 44.394531 33.382812 44.125 33.4375 43.859375 C 33.488281 43.59375 33.566406 43.335938 33.671875 43.082031 C 33.773438 42.832031 33.902344 42.59375 34.054688 42.367188 C 34.203125 42.140625 34.375 41.933594 34.566406 41.742188 C 34.761719 41.546875 34.96875 41.375 35.195312 41.226562 C 35.421875 41.074219 35.660156 40.945312 35.910156 40.84375 C 36.160156 40.738281 36.421875 40.660156 36.6875 40.609375 C 36.953125 40.554688 37.222656 40.527344 37.496094 40.527344 C 37.765625 40.527344 38.035156 40.554688 38.300781 40.609375 C 38.570312 40.660156 38.828125 40.738281 39.078125 40.84375 C 39.328125 40.945312 39.570312 41.074219 39.792969 41.226562 C 40.019531 41.375 40.230469 41.546875 40.421875 41.742188 C 40.613281 41.933594 40.785156 42.140625 40.9375 42.367188 C 41.085938 42.59375 41.214844 42.832031 41.320312 43.082031 C 41.421875 43.335938 41.5 43.59375 41.554688 43.859375 C 41.605469 44.125 41.632812 44.394531 41.632812 44.667969 C 41.632812 44.859375 41.617188 45.054688 41.589844 45.246094 Z M 49.277344 30.808594 L 25.710938 30.808594 L 25.710938 26 C 25.710938 19.5 30.996094 14.210938 37.496094 14.210938 C 43.996094 14.210938 49.277344 19.5 49.277344 26 Z M 49.277344 30.808594 " fill-opacity="1" fill-rule="nonzero"/></g></svg>