<svg width="31" height="34" viewBox="0 0 31 34" fill="none" xmlns="http://www.w3.org/2000/svg">
<path d="M23.3333 7.49998C25.1743 7.49998 26.6667 6.0076 26.6667 4.16665C26.6667 2.3257 25.1743 0.833313 23.3333 0.833313C21.4924 0.833313 20 2.3257 20 4.16665C20 6.0076 21.4924 7.49998 23.3333 7.49998Z" fill="#821DB7"/>
<path d="M21.295 15.7816C21.6776 16.3517 22.2264 16.7903 22.8669 17.0378C23.5073 17.2853 24.2084 17.3296 24.875 17.1649L30.4017 15.7833L29.5967 12.5499L24.07 13.9316L21.7717 10.4866C21.2806 9.75087 20.5185 9.23921 19.6517 9.06326L13.2417 7.77993C12.5246 7.63601 11.78 7.73219 11.1231 8.0536C10.4661 8.37502 9.93317 8.90379 9.60667 9.55826L6.84333 15.0849L9.825 16.5766L12.5883 11.0483L15.8667 11.7049L7.39 25.8333H0V29.1666H7.39C8.55333 29.1666 9.64833 28.5466 10.2483 27.5483L13.445 22.2216L22.06 23.9449L25.0867 33.0266L28.2467 31.9716L25.2217 22.8916C25.035 22.3341 24.7047 21.8357 24.264 21.4466C23.8234 21.0574 23.2879 20.7913 22.7117 20.6749L17.6467 19.6633L20.6 14.7399L21.295 15.7816Z" fill="#821DB7"/>
</svg>
