<svg xmlns="http://www.w3.org/2000/svg" xmlns:xlink="http://www.w3.org/1999/xlink" width="100" zoomAndPan="magnify" viewBox="0 0 75 74.999997" height="100" preserveAspectRatio="xMidYMid meet" version="1.0"><defs><clipPath id="6eb87eecb9"><path d="M 8.332031 7 L 66.832031 7 L 66.832031 68.480469 L 8.332031 68.480469 Z M 8.332031 7 " clip-rule="nonzero"/></clipPath></defs><g clip-path="url(#6eb87eecb9)"><path fill="#821db7" d="M 61.957031 7.6875 L 13.210938 7.6875 C 11.917969 7.6875 10.679688 8.199219 9.765625 9.113281 C 8.851562 10.023438 8.335938 11.261719 8.335938 12.550781 L 8.335938 29.574219 C 8.335938 45.597656 16.109375 55.308594 22.632812 60.632812 C 29.660156 66.367188 36.648438 68.3125 36.953125 68.394531 C 37.371094 68.507812 37.8125 68.507812 38.230469 68.394531 C 38.535156 68.3125 45.515625 66.367188 52.550781 60.632812 C 59.054688 55.308594 66.832031 45.597656 66.832031 29.574219 L 66.832031 12.550781 C 66.832031 11.261719 66.316406 10.023438 65.402344 9.113281 C 64.488281 8.199219 63.25 7.6875 61.957031 7.6875 Z M 61.957031 29.574219 C 61.957031 40.839844 57.792969 49.984375 49.585938 56.753906 C 46.015625 59.6875 41.949219 61.972656 37.582031 63.5 C 33.273438 62 29.261719 59.753906 25.726562 56.871094 C 17.421875 50.09375 13.210938 40.910156 13.210938 29.574219 L 13.210938 12.550781 L 61.957031 12.550781 Z M 23.671875 38.589844 C 23.214844 38.132812 22.957031 37.511719 22.957031 36.867188 C 22.957031 36.222656 23.214844 35.601562 23.671875 35.148438 C 24.128906 34.691406 24.75 34.433594 25.398438 34.433594 C 26.042969 34.433594 26.664062 34.691406 27.121094 35.148438 L 32.707031 40.726562 L 48.046875 25.421875 C 48.273438 25.195312 48.539062 25.015625 48.835938 24.894531 C 49.132812 24.769531 49.449219 24.707031 49.769531 24.707031 C 50.089844 24.707031 50.40625 24.769531 50.703125 24.894531 C 51 25.015625 51.265625 25.195312 51.492188 25.421875 C 51.71875 25.648438 51.898438 25.914062 52.023438 26.210938 C 52.144531 26.503906 52.207031 26.820312 52.207031 27.140625 C 52.207031 27.460938 52.144531 27.777344 52.023438 28.070312 C 51.898438 28.367188 51.71875 28.636719 51.492188 28.863281 L 34.433594 45.882812 C 34.207031 46.109375 33.9375 46.289062 33.640625 46.410156 C 33.347656 46.53125 33.027344 46.597656 32.707031 46.597656 C 32.386719 46.597656 32.070312 46.53125 31.777344 46.410156 C 31.480469 46.289062 31.210938 46.109375 30.984375 45.882812 Z M 23.671875 38.589844 " fill-opacity="1" fill-rule="nonzero"/></g><path stroke-linecap="round" transform="matrix(-0.53033, -0.53033, 0.53033, -0.53033, 71.237295, 75.034966)" fill="none" stroke-linejoin="miter" d="M 3.998463 4.000323 L 131.204037 4.000323 " stroke="#821db7" stroke-width="8" stroke-opacity="1" stroke-miterlimit="4"/></svg>