<svg width="30" height="32" viewBox="0 0 30 32" fill="none" xmlns="http://www.w3.org/2000/svg">
<path d="M27.5 0.75H2.5C1.83696 0.75 1.20107 1.01339 0.732233 1.48223C0.263392 1.95107 0 2.58696 0 3.25V12C0 20.2375 3.9875 25.2297 7.33281 27.9672C10.9359 30.9141 14.5203 31.9141 14.6766 31.9562C14.8914 32.0147 15.118 32.0147 15.3328 31.9562C15.4891 31.9141 19.0688 30.9141 22.6766 27.9672C26.0125 25.2297 30 20.2375 30 12V3.25C30 2.58696 29.7366 1.95107 29.2678 1.48223C28.7989 1.01339 28.163 0.75 27.5 0.75ZM27.5 12C27.5 17.7922 25.3656 22.4937 21.1562 25.9719C19.3239 27.4808 17.2399 28.655 15 29.4406C12.7894 28.6687 10.7312 27.5153 8.91875 26.0328C4.65938 22.5484 2.5 17.8281 2.5 12V3.25H27.5V12ZM7.86562 16.6344C7.63107 16.3998 7.4993 16.0817 7.4993 15.75C7.49931 15.4183 7.63107 15.1002 7.86562 14.8656C8.10017 14.6311 8.41829 14.4993 8.75 14.4993C9.08171 14.4993 9.39983 14.6311 9.63438 14.8656L12.5 17.7328L20.3656 9.86562C20.4818 9.74949 20.6196 9.65736 20.7714 9.59451C20.9231 9.53165 21.0858 9.4993 21.25 9.4993C21.4142 9.4993 21.5769 9.53165 21.7286 9.59451C21.8804 9.65736 22.0182 9.74949 22.1344 9.86562C22.2505 9.98176 22.3426 10.1196 22.4055 10.2714C22.4683 10.4231 22.5007 10.5858 22.5007 10.75C22.5007 10.9142 22.4683 11.0769 22.4055 11.2286C22.3426 11.3804 22.2505 11.5182 22.1344 11.6344L13.3844 20.3844C13.2683 20.5006 13.1304 20.5928 12.9787 20.6557C12.8269 20.7186 12.6643 20.751 12.5 20.751C12.3357 20.751 12.1731 20.7186 12.0213 20.6557C11.8696 20.5928 11.7317 20.5006 11.6156 20.3844L7.86562 16.6344Z" fill="#821DB7"/>
</svg>
