<svg xmlns="http://www.w3.org/2000/svg" xmlns:xlink="http://www.w3.org/1999/xlink" width="100" zoomAndPan="magnify" viewBox="0 0 75 74.999997" height="100" preserveAspectRatio="xMidYMid meet" version="1.0"><defs><clipPath id="15af1af0c4"><path d="M 7.902344 13.078125 L 14.597656 13.078125 L 14.597656 21.394531 L 7.902344 21.394531 Z M 7.902344 13.078125 " clip-rule="nonzero"/></clipPath><clipPath id="663e3e5b3f"><path d="M 14.550781 13.574219 C 8.324219 21.449219 8.023438 20.925781 8.023438 20.925781 C 8.023438 20.925781 8.625 21.375 8.625 21.375 C 8.625 21.375 8.023438 21.300781 7.949219 21.074219 C 7.726562 20.25 12.898438 13.351562 13.949219 13.125 C 14.25 13.125 14.550781 13.574219 14.550781 13.574219 " clip-rule="nonzero"/></clipPath><clipPath id="50707a3657"><path d="M 0.875 9.84375 L 22.226562 9.84375 L 22.226562 42.132812 L 0.875 42.132812 Z M 0.875 9.84375 " clip-rule="nonzero"/></clipPath><clipPath id="4aed2add6a"><path d="M 20.851562 19.125 C 12.375 33.898438 13.351562 35.925781 13.050781 37.425781 C 12.898438 38.476562 12.523438 39.226562 12 39.898438 C 11.476562 40.574219 10.648438 41.25 9.898438 41.625 C 9.074219 41.925781 8.101562 42.148438 7.273438 42.074219 C 6.375 42.074219 5.476562 41.851562 4.648438 41.324219 C 3.75 40.648438 2.773438 39.675781 2.175781 38.175781 C 1.199219 35.625 0.523438 29.851562 1.351562 26.398438 C 2.101562 23.324219 4.800781 19.351562 6.226562 18.300781 C 6.898438 17.851562 7.351562 17.851562 8.023438 17.851562 C 9 17.851562 10.574219 18.074219 11.476562 18.675781 C 12.449219 19.273438 13.351562 20.550781 13.800781 21.449219 C 14.101562 22.050781 14.175781 22.5 14.175781 23.25 C 14.101562 24.226562 13.648438 25.875 13.125 26.699219 C 12.824219 27.300781 12.375 27.601562 11.925781 27.976562 C 11.398438 28.351562 10.949219 28.648438 10.273438 28.800781 C 9.300781 29.023438 7.726562 29.175781 6.675781 28.800781 C 5.625 28.351562 4.425781 27.300781 3.824219 26.550781 C 3.449219 26.023438 3.226562 25.5 3.074219 24.898438 C 2.925781 24.300781 2.851562 23.773438 2.925781 23.101562 C 3.074219 22.125 3.523438 20.625 4.273438 19.726562 C 5.023438 18.898438 6.300781 18.148438 7.425781 17.925781 C 8.550781 17.699219 9.976562 17.925781 10.949219 18.375 C 12 18.898438 13.050781 20.101562 13.574219 20.851562 C 13.949219 21.449219 14.023438 21.898438 14.101562 22.648438 C 14.175781 23.550781 14.023438 25.125 13.5 26.175781 C 12.898438 27.148438 10.726562 28.425781 10.875 28.574219 C 10.949219 28.726562 12.300781 27.675781 12.75 28.050781 C 13.800781 28.800781 13.425781 36.601562 12.675781 38.773438 C 12.300781 39.824219 11.773438 40.351562 11.023438 40.875 C 10.125 41.550781 8.398438 42.074219 7.273438 42.074219 C 6.300781 42.074219 5.398438 41.773438 4.648438 41.324219 C 3.898438 40.875 3.226562 40.199219 2.773438 39.449219 C 2.175781 38.550781 1.875 37.425781 1.648438 36.148438 C 1.351562 34.5 0.898438 32.550781 1.425781 30.375 C 2.101562 27.226562 4.949219 22.648438 6.898438 19.351562 C 8.625 16.574219 10.800781 13.351562 12.300781 11.851562 C 13.050781 11.023438 13.648438 10.574219 14.476562 10.273438 C 15.226562 9.976562 16.273438 9.824219 17.101562 9.898438 C 18 9.976562 18.898438 10.273438 19.648438 10.800781 C 20.398438 11.25 21.074219 12 21.449219 12.75 C 21.898438 13.5 22.199219 14.398438 22.199219 15.375 C 22.125 16.5 20.851562 19.125 20.851562 19.125 " clip-rule="nonzero"/></clipPath><clipPath id="6465a547f6"><path d="M 16.171875 3.269531 L 37.726562 3.269531 L 37.726562 16.828125 L 16.171875 16.828125 Z M 16.171875 3.269531 " clip-rule="nonzero"/></clipPath><clipPath id="810ef8a91b"><path d="M 18.375 10.273438 C 23.101562 6.75 24.75 10.5 24.449219 12 C 24.148438 13.199219 22.199219 14.398438 21.226562 14.851562 C 20.625 15.148438 20.023438 15.148438 19.425781 15.074219 C 18.675781 14.925781 17.625 14.398438 17.101562 13.800781 C 16.574219 13.125 16.199219 12.148438 16.199219 11.25 C 16.199219 10.425781 16.5 9.375 17.175781 8.773438 C 17.925781 8.101562 19.800781 8.398438 20.851562 7.800781 C 21.898438 7.199219 22.199219 5.773438 23.550781 5.175781 C 25.800781 4.125 31.726562 4.273438 33.75 4.425781 C 34.574219 4.425781 34.949219 4.425781 35.476562 4.726562 C 36.148438 5.101562 37.050781 5.925781 37.351562 6.601562 C 37.648438 7.199219 37.726562 7.800781 37.648438 8.398438 C 37.574219 9.148438 37.125 10.273438 36.601562 10.800781 C 36.148438 11.25 35.699219 11.550781 35.023438 11.773438 C 33.976562 12.074219 32.25 12.074219 30.601562 11.851562 C 28.5 11.625 24.601562 10.800781 23.324219 9.898438 C 22.726562 9.449219 22.5 9 22.273438 8.398438 C 22.050781 7.726562 22.050781 6.523438 22.273438 5.773438 C 22.5 5.175781 22.800781 4.648438 23.324219 4.273438 C 23.925781 3.824219 24.75 3.449219 25.800781 3.375 C 27.824219 3.148438 32.699219 3.601562 34.351562 4.5 C 35.324219 5.023438 35.773438 5.773438 36.074219 6.601562 C 36.300781 7.351562 36.226562 8.476562 35.925781 9.226562 C 35.550781 9.976562 34.875 10.726562 34.050781 11.175781 C 33.074219 11.625 31.648438 11.625 30.226562 11.625 C 28.273438 11.550781 24.898438 11.476562 23.476562 10.574219 C 22.425781 9.898438 21.675781 8.625 21.601562 7.574219 C 21.523438 6.523438 22.199219 5.023438 23.023438 4.351562 C 23.851562 3.75 25.574219 3.523438 26.476562 3.75 C 27.300781 3.898438 27.976562 4.5 28.425781 5.175781 C 28.875 5.773438 29.25 6.675781 29.101562 7.425781 C 29.023438 8.398438 28.125 9.898438 27.375 10.5 C 26.699219 10.949219 25.800781 11.101562 25.050781 11.023438 C 24.300781 10.949219 23.398438 10.648438 22.875 10.050781 C 22.199219 9.375 21.601562 7.726562 21.675781 6.75 C 21.675781 6 22.199219 5.175781 22.726562 4.648438 C 23.25 4.125 23.925781 3.75 24.898438 3.601562 C 26.925781 3.226562 32.625 3.523438 34.351562 4.5 C 35.324219 5.023438 35.773438 5.773438 36.074219 6.601562 C 36.300781 7.351562 36.226562 8.476562 35.925781 9.226562 C 35.550781 9.976562 34.875 10.726562 34.050781 11.175781 C 32.925781 11.773438 30.976562 12 29.398438 11.925781 C 27.675781 11.851562 25.273438 11.175781 24.074219 10.425781 C 23.175781 9.898438 22.574219 9.226562 22.273438 8.398438 C 21.976562 7.648438 21.976562 6.523438 22.273438 5.773438 C 22.574219 5.023438 23.398438 4.199219 24.074219 3.75 C 24.601562 3.449219 24.976562 3.375 25.800781 3.375 C 27.824219 3.300781 34.5 3.824219 36.300781 5.175781 C 37.273438 6 37.648438 7.425781 37.648438 8.398438 C 37.648438 9.226562 37.351562 10.199219 36.601562 10.800781 C 35.476562 11.773438 32.476562 12.449219 30.675781 12.675781 C 29.101562 12.824219 27.523438 12.148438 26.25 12.449219 C 24.976562 12.675781 24.074219 13.800781 22.875 14.25 C 21.675781 14.625 19.125 14.925781 19.125 14.851562 C 19.125 14.851562 22.648438 13.726562 22.726562 13.875 C 22.800781 13.949219 21.824219 14.699219 21.226562 14.851562 C 20.476562 15.074219 19.351562 15.148438 18.601562 14.851562 C 17.773438 14.550781 16.949219 13.800781 16.574219 13.050781 C 16.199219 12.300781 16.125 11.25 16.273438 10.425781 C 16.5 9.523438 17.175781 8.625 18 7.949219 C 18.824219 7.125 20.175781 6.449219 21.449219 6.074219 C 22.726562 5.699219 24.523438 5.101562 25.425781 5.699219 C 26.625 6.601562 27.375 10.5 26.851562 12.226562 C 26.398438 13.726562 24.523438 15.074219 23.398438 15.824219 C 22.574219 16.351562 21.75 16.800781 20.925781 16.800781 C 20.101562 16.800781 19.050781 16.351562 18.449219 15.898438 C 17.925781 15.523438 17.625 15 17.398438 14.398438 C 17.175781 13.648438 17.175781 12.449219 17.398438 11.773438 C 17.550781 11.175781 18.375 10.273438 18.375 10.273438 " clip-rule="nonzero"/></clipPath><clipPath id="9ad8ebd381"><path d="M 30.648438 2.824219 L 71.835938 2.824219 L 71.835938 34.148438 L 30.648438 34.148438 Z M 30.648438 2.824219 " clip-rule="nonzero"/></clipPath><clipPath id="b24859c450"><path d="M 35.175781 3.675781 C 49.949219 3.898438 50.699219 4.050781 51.449219 4.574219 C 52.125 5.023438 52.800781 5.925781 52.949219 6.75 C 53.101562 7.726562 52.726562 9.375 52.125 10.125 C 51.601562 10.800781 50.773438 11.101562 49.726562 11.324219 C 48.300781 11.699219 45.675781 11.625 43.949219 11.25 C 42.449219 10.949219 40.800781 10.351562 39.898438 9.75 C 39.300781 9.300781 39 8.925781 38.699219 8.324219 C 38.398438 7.648438 38.175781 6.523438 38.398438 5.699219 C 38.625 4.949219 39.300781 3.976562 39.898438 3.523438 C 40.425781 3.148438 40.800781 3 41.625 2.925781 C 43.425781 2.699219 48.226562 2.925781 50.398438 3.601562 C 51.898438 4.050781 52.351562 4.351562 53.773438 5.476562 C 57.226562 8.25 67.273438 18.824219 69.75 22.648438 C 70.800781 24.226562 71.101562 25.050781 71.398438 26.398438 C 71.699219 27.824219 71.851562 29.773438 71.550781 30.976562 C 71.25 31.949219 70.800781 32.773438 70.125 33.226562 C 69.449219 33.75 68.398438 34.125 67.574219 34.050781 C 66.601562 33.898438 65.324219 33.226562 64.648438 32.175781 C 63.675781 30.824219 63 27.523438 63.375 25.949219 C 63.75 24.824219 64.726562 23.699219 65.699219 23.324219 C 66.675781 22.949219 68.398438 23.25 69.226562 23.773438 C 69.898438 24.148438 70.425781 24.976562 70.648438 25.648438 C 70.875 26.398438 70.949219 27.375 70.574219 28.050781 C 70.199219 28.949219 69 30.226562 68.023438 30.449219 C 66.976562 30.75 65.398438 30.300781 64.574219 29.625 C 63.824219 28.949219 63.300781 27.300781 63.300781 26.324219 C 63.375 25.574219 63.824219 24.75 64.351562 24.226562 C 64.875 23.699219 65.699219 23.175781 66.523438 23.101562 C 67.5 23.023438 69 23.398438 69.824219 24.300781 C 71.023438 25.648438 71.773438 30.226562 71.25 31.875 C 70.949219 32.773438 70.125 33.449219 69.375 33.75 C 68.398438 34.050781 66.675781 33.824219 65.851562 33.449219 C 65.25 33.226562 64.875 32.773438 64.648438 32.175781 C 64.273438 31.5 64.5 30.300781 64.199219 29.398438 C 63.824219 28.273438 63.300781 27.449219 62.324219 25.949219 C 60 22.648438 53.550781 13.125 49.351562 10.949219 C 46.726562 9.675781 43.425781 11.023438 41.550781 10.351562 C 40.273438 9.898438 39.148438 9.300781 38.699219 8.324219 C 38.25 7.425781 38.324219 5.773438 38.773438 4.875 C 39.074219 4.125 39.75 3.449219 40.726562 3.148438 C 42.75 2.476562 48.824219 3.449219 50.625 4.125 C 51.375 4.425781 51.75 4.648438 52.125 5.175781 C 52.648438 5.925781 53.175781 7.5 52.949219 8.550781 C 52.726562 9.523438 51.976562 10.574219 50.625 11.175781 C 47.925781 12.375 38.625 11.851562 35.398438 11.324219 C 33.898438 11.101562 32.925781 11.023438 32.175781 10.351562 C 31.425781 9.601562 30.75 8.101562 30.75 7.125 C 30.75 6.300781 31.199219 5.25 31.875 4.726562 C 32.625 4.050781 35.175781 3.675781 35.175781 3.675781 " clip-rule="nonzero"/></clipPath><clipPath id="31f8f51755"><path d="M 61.65625 18.933594 L 70.199219 18.933594 L 70.199219 28.792969 L 61.65625 28.792969 Z M 61.65625 18.933594 " clip-rule="nonzero"/></clipPath><clipPath id="a8ca646667"><path d="M 64.875 26.175781 C 63.976562 25.273438 67.125 23.25 68.101562 23.175781 C 68.699219 23.175781 69.226562 23.476562 69.523438 23.851562 C 69.75 24.148438 69.75 24.523438 69.675781 24.976562 C 69.523438 25.800781 68.925781 27.523438 68.023438 28.125 C 67.199219 28.726562 65.476562 28.875 64.574219 28.5 C 63.601562 28.125 62.550781 26.773438 62.25 25.800781 C 62.023438 25.050781 62.25 24.148438 62.550781 23.476562 C 62.851562 22.726562 63.523438 22.050781 64.199219 21.675781 C 64.875 21.375 65.773438 21.148438 66.523438 21.300781 C 67.5 21.523438 68.925781 22.5 69.375 23.476562 C 69.75 24.375 69.601562 26.101562 69.148438 26.925781 C 68.773438 27.675781 68.023438 28.199219 67.351562 28.5 C 66.601562 28.800781 65.699219 28.875 64.949219 28.648438 C 64.050781 28.273438 62.851562 27.300781 62.398438 26.25 C 61.800781 24.976562 61.351562 22.726562 62.023438 21.523438 C 62.773438 20.175781 66.074219 18.976562 67.125 18.976562 C 67.5 18.976562 67.648438 19.125 67.949219 19.351562 C 68.550781 19.726562 69.523438 20.476562 69.824219 21.226562 C 70.199219 21.976562 70.273438 23.101562 69.976562 23.925781 C 69.601562 24.824219 68.398438 26.023438 67.5 26.324219 C 66.675781 26.625 64.875 26.175781 64.875 26.175781 " clip-rule="nonzero"/></clipPath><clipPath id="f9a9ae0bfc"><path d="M 63.058594 21.277344 L 71.886719 21.277344 L 71.886719 29.179688 L 63.058594 29.179688 Z M 63.058594 21.277344 " clip-rule="nonzero"/></clipPath><clipPath id="2f62f1ed49"><path d="M 65.101562 22.125 C 68.925781 21.226562 70.5 21.824219 71.101562 22.648438 C 71.699219 23.476562 72 25.199219 71.625 26.175781 C 71.324219 27.148438 70.125 28.273438 69.074219 28.574219 C 68.101562 28.800781 66.449219 28.425781 65.699219 27.824219 C 64.875 27.148438 64.273438 25.574219 64.351562 24.523438 C 64.5 23.476562 65.476562 22.125 66.375 21.601562 C 67.273438 21.148438 69 21.226562 69.898438 21.601562 C 70.648438 21.976562 71.175781 22.726562 71.550781 23.398438 C 71.851562 24.074219 72 24.976562 71.773438 25.800781 C 71.476562 26.699219 70.425781 27.898438 69.449219 28.425781 C 68.476562 29.023438 66.75 29.324219 65.699219 29.101562 C 64.875 28.875 63.976562 28.273438 63.601562 27.523438 C 63.074219 26.699219 62.925781 24.976562 63.226562 24.074219 C 63.523438 23.25 65.101562 22.125 65.101562 22.125 " clip-rule="nonzero"/></clipPath><clipPath id="c3658251cb"><path d="M 1.695312 39.046875 L 15.328125 39.046875 L 15.328125 57.859375 L 1.695312 57.859375 Z M 1.695312 39.046875 " clip-rule="nonzero"/></clipPath><clipPath id="c96d3a59d9"><path d="M 8.851562 41.101562 C 13.425781 51.148438 14.398438 51.523438 14.851562 52.273438 C 15.148438 52.800781 15.300781 53.398438 15.300781 54 C 15.300781 54.601562 15.226562 55.199219 14.925781 55.726562 C 14.476562 56.398438 13.726562 57.300781 12.976562 57.523438 C 12 57.898438 10.351562 57.824219 9.449219 57.226562 C 8.550781 56.550781 7.800781 54.675781 7.800781 53.625 C 7.800781 52.800781 8.324219 51.976562 8.851562 51.449219 C 9.375 50.925781 10.273438 50.476562 11.023438 50.398438 C 11.773438 50.25 12.675781 50.398438 13.351562 50.773438 C 14.023438 51.148438 14.699219 51.824219 15 52.574219 C 15.300781 53.476562 15.300781 55.199219 14.699219 56.023438 C 14.175781 56.925781 12.675781 57.675781 11.699219 57.824219 C 10.875 57.898438 9.976562 57.601562 9.375 57.148438 C 8.773438 56.699219 8.175781 56.023438 7.949219 55.199219 C 7.726562 54.226562 7.949219 52.574219 8.625 51.75 C 9.226562 50.925781 10.800781 50.324219 11.773438 50.324219 C 12.601562 50.324219 13.425781 50.773438 14.023438 51.226562 C 14.550781 51.75 15.226562 53.324219 15.226562 53.324219 C 15.226562 53.324219 14.398438 51.523438 14.324219 51.523438 C 14.175781 51.601562 15.375 53.925781 15.226562 54.898438 C 15.074219 55.726562 14.398438 56.625 13.726562 57.148438 C 13.050781 57.601562 11.925781 57.824219 11.175781 57.824219 C 10.5 57.75 10.050781 57.601562 9.449219 57.226562 C 8.476562 56.550781 7.199219 55.351562 6.148438 53.699219 C 4.574219 51.375 2.25 45.675781 1.875 43.726562 C 1.726562 42.898438 1.648438 42.523438 1.875 41.925781 C 2.101562 41.175781 2.773438 40.199219 3.375 39.75 C 3.898438 39.300781 4.425781 39.148438 5.023438 39.074219 C 5.851562 39 6.976562 39.300781 7.648438 39.75 C 8.175781 40.050781 8.851562 41.101562 8.851562 41.101562 " clip-rule="nonzero"/></clipPath><clipPath id="3bc9f1838b"><path d="M 2.8125 28.039062 L 72.910156 28.039062 L 72.910156 73.257812 L 2.8125 73.257812 Z M 2.8125 28.039062 " clip-rule="nonzero"/></clipPath><clipPath id="1792784663"><path d="M 7.726562 47.101562 C 13.273438 51.375 13.273438 52.875 14.023438 54 C 14.699219 55.050781 15.375 55.648438 16.574219 56.773438 C 18.824219 58.800781 22.5 63.226562 26.773438 64.574219 C 32.101562 66.300781 43.125 64.800781 47.101562 63.75 C 48.976562 63.226562 49.574219 62.699219 50.925781 61.726562 C 52.648438 60.449219 54.75 57.449219 56.398438 56.101562 C 57.675781 55.050781 58.875 54.75 59.851562 53.773438 C 60.75 52.875 61.425781 51.601562 62.101562 50.476562 C 62.773438 49.351562 63.523438 48.300781 63.824219 47.101562 C 64.199219 45.898438 64.273438 44.550781 64.199219 43.351562 C 64.050781 42 63.375 40.726562 63.300781 39.375 C 63.300781 37.949219 63.675781 36.449219 64.125 34.949219 C 64.5 33.375 65.023438 31.273438 65.773438 30.148438 C 66.300781 29.324219 66.898438 28.574219 67.726562 28.351562 C 68.625 28.050781 70.351562 28.199219 71.175781 28.726562 C 71.925781 29.101562 72.523438 29.773438 72.75 30.824219 C 73.125 32.925781 70.726562 38.25 70.273438 40.949219 C 69.976562 42.675781 69.824219 43.726562 69.976562 45.226562 C 70.125 46.949219 71.398438 49.199219 71.324219 50.550781 C 71.25 51.449219 70.949219 52.199219 70.351562 52.726562 C 69.601562 53.398438 67.949219 53.925781 66.976562 53.851562 C 66.226562 53.851562 65.398438 53.324219 64.875 52.800781 C 64.351562 52.199219 63.898438 51.375 63.824219 50.625 C 63.824219 49.648438 64.351562 48 65.101562 47.324219 C 65.925781 46.648438 67.574219 46.273438 68.550781 46.574219 C 69.523438 46.800781 70.800781 48 71.101562 48.976562 C 71.476562 49.949219 71.101562 51.601562 70.574219 52.425781 C 70.125 53.101562 69.300781 53.550781 68.625 53.773438 C 67.875 54 66.898438 53.925781 66.226562 53.699219 C 65.550781 53.398438 64.949219 52.875 64.351562 52.125 C 63.601562 51.148438 62.851562 49.648438 62.476562 48 C 62.101562 45.75 62.398438 42.601562 62.851562 39.75 C 63.375 36.675781 64.574219 32.023438 65.773438 30.148438 C 66.375 29.175781 66.976562 28.648438 67.726562 28.351562 C 68.476562 28.050781 69.675781 28.050781 70.351562 28.273438 C 70.949219 28.5 71.476562 28.800781 71.851562 29.25 C 72.375 29.851562 72.75 30.675781 72.824219 31.726562 C 73.050781 33.675781 71.476562 37.351562 71.25 40.199219 C 71.023438 42.976562 72.148438 45.824219 71.398438 48.675781 C 70.574219 51.976562 68.175781 55.726562 65.773438 58.648438 C 63.300781 61.726562 59.550781 64.425781 56.773438 66.523438 C 54.523438 68.25 53.324219 69.675781 50.398438 70.726562 C 45 72.601562 30.300781 73.726562 25.875 72.75 C 24.074219 72.375 23.773438 71.851562 22.273438 70.875 C 19.425781 69 12.824219 63.824219 10.351562 61.425781 C 9.074219 60.148438 8.398438 59.398438 7.800781 58.273438 C 7.125 57.148438 7.273438 55.574219 6.523438 54.601562 C 5.773438 53.625 3.898438 53.324219 3.300781 52.5 C 2.925781 51.976562 2.773438 51.449219 2.851562 50.773438 C 2.851562 50.023438 3.226562 48.898438 3.675781 48.300781 C 4.050781 47.773438 4.5 47.398438 5.101562 47.175781 C 5.773438 46.949219 7.726562 47.101562 7.726562 47.101562 " clip-rule="nonzero"/></clipPath><clipPath id="5b18d5f387"><path d="M 46.824219 65.046875 L 54.597656 65.046875 L 54.597656 72.984375 L 46.824219 72.984375 Z M 46.824219 65.046875 " clip-rule="nonzero"/></clipPath><clipPath id="7f838f8f36"><path d="M 53.699219 71.324219 C 49.875 73.050781 48.976562 72.75 48.375 72.226562 C 47.625 71.625 46.800781 70.125 46.875 69.074219 C 46.875 68.023438 47.773438 66.601562 48.675781 66 C 49.5 65.476562 51.226562 65.398438 52.125 65.851562 C 53.101562 66.226562 54.148438 67.574219 54.300781 68.625 C 54.449219 69.601562 53.925781 71.25 53.175781 71.925781 C 52.5 72.675781 50.851562 73.125 49.800781 72.898438 C 48.824219 72.675781 47.550781 71.550781 47.101562 70.648438 C 46.800781 69.898438 46.800781 69 46.949219 68.25 C 47.101562 67.574219 47.476562 66.898438 48 66.375 C 48.523438 65.773438 49.5 65.175781 50.324219 65.101562 C 51.148438 64.949219 52.273438 65.175781 52.949219 65.625 C 53.625 66.074219 54.300781 66.976562 54.523438 67.800781 C 54.75 68.625 54.300781 70.5 54.300781 70.5 " clip-rule="nonzero"/></clipPath></defs><path fill="#821db7" d="M 51.246094 -0.00390625 L 23.753906 -0.00390625 C 22.609375 -0.00390625 21.511719 0.449219 20.699219 1.261719 L 1.261719 20.699219 C 0.449219 21.511719 -0.00390625 22.609375 -0.00390625 23.753906 L -0.00390625 51.246094 C -0.00390625 52.390625 0.449219 53.488281 1.261719 54.300781 L 20.699219 73.738281 C 21.511719 74.550781 22.609375 75.003906 23.753906 75.003906 L 51.246094 75.003906 C 52.390625 75.003906 53.488281 74.550781 54.300781 73.738281 L 73.738281 54.300781 C 74.550781 53.488281 75.003906 52.390625 75.003906 51.246094 L 75.003906 23.753906 C 75.003906 22.609375 74.550781 21.511719 73.738281 20.699219 L 54.300781 1.261719 C 53.488281 0.449219 52.390625 -0.00390625 51.246094 -0.00390625 " fill-opacity="1" fill-rule="nonzero"/><path fill="#821db7" d="M 54.300781 73.738281 L 73.738281 54.300781 C 74.550781 53.488281 75.003906 52.390625 75.003906 51.246094 L 75.003906 23.753906 C 75.003906 22.609375 74.550781 21.511719 73.738281 20.699219 L 64.105469 11.0625 L 11.0625 64.105469 L 20.699219 73.738281 C 21.511719 74.550781 22.609375 75.003906 23.753906 75.003906 L 51.246094 75.003906 C 52.390625 75.003906 53.488281 74.550781 54.300781 73.738281 " fill-opacity="1" fill-rule="nonzero"/><path fill="#ffffff" d="M 24.398438 69.125 L 50.601562 69.125 L 69.125 50.601562 L 69.125 24.398438 L 50.601562 5.875 L 24.398438 5.875 L 5.875 24.398438 L 5.875 50.601562 Z M 51.3125 70.847656 L 23.6875 70.847656 L 4.152344 51.3125 L 4.152344 23.6875 L 23.6875 4.152344 L 51.3125 4.152344 L 70.847656 23.6875 L 70.847656 51.3125 L 51.3125 70.847656 " fill-opacity="1" fill-rule="nonzero"/><path fill="#ffffff" d="M 47.351562 24.917969 C 46.121094 25 45.191406 26.074219 45.191406 27.304688 L 45.191406 35.765625 C 45.191406 36.109375 44.914062 36.390625 44.566406 36.390625 C 44.222656 36.390625 43.941406 36.109375 43.941406 35.765625 L 43.941406 21.234375 C 43.941406 19.957031 42.90625 18.921875 41.628906 18.921875 C 40.351562 18.921875 39.316406 19.957031 39.316406 21.234375 L 39.316406 35.765625 C 39.316406 36.109375 39.035156 36.390625 38.6875 36.390625 C 38.34375 36.390625 38.0625 36.109375 38.0625 35.765625 L 38.0625 18.699219 C 38.0625 17.46875 37.132812 16.394531 35.90625 16.3125 C 34.558594 16.226562 33.4375 17.292969 33.4375 18.621094 L 33.4375 35.765625 C 33.4375 36.109375 33.15625 36.390625 32.8125 36.390625 C 32.464844 36.390625 32.183594 36.109375 32.183594 35.765625 L 32.183594 20.503906 C 32.183594 19.230469 31.148438 18.191406 29.875 18.191406 C 28.597656 18.191406 27.5625 19.230469 27.5625 20.503906 L 27.5625 40.894531 C 27.5625 43.726562 24.9375 42.820312 24.9375 42.820312 L 20.800781 39.871094 C 19.707031 38.851562 18.152344 38.800781 17.28125 39.761719 C 16.488281 40.636719 16.519531 42.085938 17.359375 43.171875 L 23.980469 51.71875 C 23.980469 51.71875 27.417969 58.71875 36.628906 58.730469 C 36.84375 58.738281 37.058594 58.738281 37.277344 58.738281 C 44.078125 58.738281 49.609375 54.96875 49.808594 50.269531 L 49.816406 50.261719 C 49.816406 50.261719 49.816406 50.261719 49.816406 47.4375 L 49.816406 27.226562 C 49.816406 25.898438 48.699219 24.832031 47.351562 24.917969 " fill-opacity="1" fill-rule="nonzero"/><g clip-path="url(#15af1af0c4)"><g clip-path="url(#663e3e5b3f)"><path fill="#821db7" d="M 4.949219 10.125 L 17.550781 10.125 L 17.550781 24.449219 L 4.949219 24.449219 Z M 4.949219 10.125 " fill-opacity="1" fill-rule="nonzero"/></g></g><g clip-path="url(#50707a3657)"><g clip-path="url(#4aed2add6a)"><path fill="#821db7" d="M -1.648438 6.898438 L 25.273438 6.898438 L 25.273438 45.183594 L -1.648438 45.183594 Z M -1.648438 6.898438 " fill-opacity="1" fill-rule="nonzero"/></g></g><g clip-path="url(#6465a547f6)"><g clip-path="url(#810ef8a91b)"><path fill="#821db7" d="M 13.199219 0.375 L 40.699219 0.375 L 40.699219 19.875 L 13.199219 19.875 Z M 13.199219 0.375 " fill-opacity="1" fill-rule="nonzero"/></g></g><g clip-path="url(#9ad8ebd381)"><g clip-path="url(#b24859c450)"><path fill="#821db7" d="M 27.75 -0.0742188 L 74.589844 -0.0742188 L 74.589844 37.050781 L 27.75 37.050781 Z M 27.75 -0.0742188 " fill-opacity="1" fill-rule="nonzero"/></g></g><g clip-path="url(#31f8f51755)"><g clip-path="url(#a8ca646667)"><path fill="#821db7" d="M 59.023438 15.976562 L 73.050781 15.976562 L 73.050781 31.699219 L 59.023438 31.699219 Z M 59.023438 15.976562 " fill-opacity="1" fill-rule="nonzero"/></g></g><g clip-path="url(#f9a9ae0bfc)"><g clip-path="url(#2f62f1ed49)"><path fill="#821db7" d="M 60.226562 18.226562 L 74.773438 18.226562 L 74.773438 32.175781 L 60.226562 32.175781 Z M 60.226562 18.226562 " fill-opacity="1" fill-rule="nonzero"/></g></g><g clip-path="url(#c3658251cb)"><g clip-path="url(#c96d3a59d9)"><path fill="#821db7" d="M -1.125 36.074219 L 18.375 36.074219 L 18.375 60.832031 L -1.125 60.832031 Z M -1.125 36.074219 " fill-opacity="1" fill-rule="nonzero"/></g></g><g clip-path="url(#3bc9f1838b)"><g clip-path="url(#1792784663)"><path fill="#821db7" d="M -0.148438 25.273438 L 75.871094 25.273438 L 75.871094 75.824219 L -0.148438 75.824219 Z M -0.148438 25.273438 " fill-opacity="1" fill-rule="nonzero"/></g></g><g clip-path="url(#5b18d5f387)"><g clip-path="url(#7f838f8f36)"><path fill="#821db7" d="M 43.875 62.101562 L 57.601562 62.101562 L 57.601562 76.039062 L 43.875 76.039062 Z M 43.875 62.101562 " fill-opacity="1" fill-rule="nonzero"/></g></g></svg>