<svg width="34" height="32" viewBox="0 0 34 32" fill="none" xmlns="http://www.w3.org/2000/svg">
<path d="M20.238 1.44501C20.1232 1.11991 19.9104 0.838415 19.6289 0.639318C19.3474 0.44022 19.0111 0.333318 18.6663 0.333344H15.333C14.9882 0.333318 14.6519 0.44022 14.3704 0.639318C14.089 0.838415 13.8762 1.11991 13.7613 1.44501L4.15301 28.6667H0.333008V32H33.6663V28.6667H29.8463L20.238 1.44501ZM22.783 18.6667H11.2163L12.983 13.6667H21.0163L22.783 18.6667ZM16.5113 3.66668H17.488L19.8413 10.3333H14.158L16.5113 3.66668ZM10.0413 22H23.958L26.3113 28.6667H7.68801L10.0413 22Z" fill="#821DB7"/>
</svg>
