<svg xmlns="http://www.w3.org/2000/svg" xmlns:xlink="http://www.w3.org/1999/xlink" width="100" zoomAndPan="magnify" viewBox="0 0 75 74.999997" height="100" preserveAspectRatio="xMidYMid meet" version="1.0"><defs><clipPath id="073fc3189a"><path d="M 8.511719 7.5 L 53 7.5 L 53 69.75 L 8.511719 69.75 Z M 8.511719 7.5 " clip-rule="nonzero"/></clipPath><clipPath id="02eb552328"><path d="M 54 29 L 66.261719 29 L 66.261719 38 L 54 38 Z M 54 29 " clip-rule="nonzero"/></clipPath></defs><g clip-path="url(#073fc3189a)"><path fill="#821db7" d="M 44.691406 33.710938 L 23.695312 33.710938 L 20.210938 24.480469 C 19.21875 21.8125 20.585938 18.804688 23.253906 17.777344 L 27.734375 16.101562 C 29.03125 15.625 30.433594 15.65625 31.699219 16.238281 C 32.996094 16.820312 33.957031 17.847656 34.433594 19.144531 L 34.980469 20.546875 C 35.734375 22.597656 37.992188 23.625 40.042969 22.839844 C 42.058594 22.085938 43.085938 19.828125 42.332031 17.777344 L 41.820312 16.375 C 40.589844 13.125 38.160156 10.527344 34.945312 9.09375 C 31.765625 7.621094 28.210938 7.519531 24.960938 8.75 L 20.484375 10.425781 C 17.234375 11.65625 14.636719 14.085938 13.199219 17.265625 C 11.761719 20.445312 11.625 24 12.859375 27.25 L 15.320312 33.816406 C 11.488281 34.292969 8.515625 37.542969 8.515625 41.472656 L 8.515625 61.886719 C 8.515625 66.164062 12.003906 69.648438 16.3125 69.648438 L 44.691406 69.648438 C 48.96875 69.648438 52.453125 66.164062 52.453125 61.886719 L 52.453125 41.472656 C 52.453125 37.199219 48.96875 33.710938 44.691406 33.710938 Z M 34.332031 59.222656 C 34.503906 59.871094 34.023438 60.484375 33.375 60.484375 L 27.628906 60.484375 C 26.945312 60.484375 26.46875 59.871094 26.636719 59.222656 L 28.550781 51.734375 C 26.945312 51.015625 25.851562 49.40625 25.851562 47.527344 C 25.851562 44.960938 27.9375 42.875 30.5 42.875 C 33.066406 42.875 35.152344 44.960938 35.152344 47.527344 C 35.152344 49.40625 34.023438 51.046875 32.417969 51.765625 Z M 34.332031 59.222656 " fill-opacity="1" fill-rule="nonzero"/></g><path fill="#821db7" d="M 56.015625 26.761719 C 56.476562 26.761719 56.9375 26.664062 57.371094 26.46875 L 62.328125 24.238281 C 63.984375 23.492188 64.726562 21.535156 63.980469 19.875 C 63.230469 18.214844 61.273438 17.476562 59.621094 18.222656 L 54.660156 20.457031 C 53.003906 21.203125 52.261719 23.160156 53.007812 24.816406 C 53.371094 25.621094 54.023438 26.234375 54.847656 26.546875 C 55.226562 26.691406 55.621094 26.761719 56.015625 26.761719 Z M 56.015625 26.761719 " fill-opacity="1" fill-rule="nonzero"/><path fill="#821db7" d="M 56.214844 10.917969 C 56.074219 10.046875 55.601562 9.285156 54.886719 8.769531 C 53.410156 7.710938 51.34375 8.046875 50.28125 9.519531 L 47.105469 13.933594 L 47.101562 13.933594 C 46.417969 14.886719 46.292969 16.144531 46.773438 17.214844 C 47.007812 17.738281 47.378906 18.195312 47.851562 18.535156 C 48.433594 18.953125 49.109375 19.15625 49.777344 19.15625 C 50.800781 19.15625 51.8125 18.679688 52.457031 17.789062 L 55.636719 13.375 C 56.148438 12.65625 56.355469 11.785156 56.214844 10.917969 Z M 56.214844 10.917969 " fill-opacity="1" fill-rule="nonzero"/><g clip-path="url(#02eb552328)"><path fill="#821db7" d="M 63.351562 30.429688 L 57.945312 29.882812 C 57.066406 29.789062 56.207031 30.050781 55.527344 30.609375 C 54.84375 31.167969 54.417969 31.957031 54.332031 32.835938 C 54.273438 33.410156 54.367188 33.992188 54.601562 34.515625 C 55.085938 35.585938 56.113281 36.328125 57.28125 36.445312 L 62.691406 36.992188 C 62.800781 37.003906 62.914062 37.007812 63.019531 37.007812 C 64.695312 37.007812 66.132812 35.738281 66.304688 34.039062 C 66.484375 32.230469 65.160156 30.609375 63.351562 30.429688 Z M 63.351562 30.429688 " fill-opacity="1" fill-rule="nonzero"/></g></svg>