<svg xmlns="http://www.w3.org/2000/svg" xmlns:xlink="http://www.w3.org/1999/xlink" width="100" zoomAndPan="magnify" viewBox="0 0 75 74.999997" height="100" preserveAspectRatio="xMidYMid meet" version="1.0"><defs><clipPath id="48dcd69739"><path d="M 8.804688 17.03125 L 75 17.03125 L 75 73 L 8.804688 73 Z M 8.804688 17.03125 " clip-rule="nonzero"/></clipPath><clipPath id="dadd0c3899"><path d="M 0.140625 8.304688 L 38.695312 8.304688 L 38.695312 66 L 0.140625 66 Z M 0.140625 8.304688 " clip-rule="nonzero"/></clipPath><clipPath id="9f7cc1732b"><path d="M 22.59375 38 L 47.578125 38 L 47.578125 66.089844 L 22.59375 66.089844 Z M 22.59375 38 " clip-rule="nonzero"/></clipPath></defs><path fill="#821db7" d="M 59.4375 16.617188 C 63.433594 16.617188 66.671875 13.359375 66.671875 9.34375 C 66.671875 5.328125 63.433594 2.070312 59.4375 2.070312 C 55.445312 2.070312 52.207031 5.328125 52.207031 9.34375 C 52.207031 13.359375 55.445312 16.617188 59.4375 16.617188 Z M 59.4375 16.617188 " fill-opacity="1" fill-rule="nonzero"/><g clip-path="url(#48dcd69739)"><path fill="#821db7" d="M 55.015625 34.683594 C 55.84375 35.925781 57.035156 36.882812 58.429688 37.425781 C 59.816406 37.964844 61.339844 38.058594 62.785156 37.699219 L 74.78125 34.683594 L 73.03125 27.632812 L 61.039062 30.648438 L 56.050781 23.132812 C 54.984375 21.527344 53.328125 20.410156 51.449219 20.027344 L 37.539062 17.230469 C 35.984375 16.914062 34.367188 17.121094 32.941406 17.828125 C 31.515625 18.527344 30.359375 19.675781 29.652344 21.105469 L 23.65625 33.164062 L 30.125 36.417969 L 36.121094 24.359375 L 43.234375 25.789062 L 24.839844 56.613281 L 8.804688 56.613281 L 8.804688 63.882812 L 24.839844 63.882812 C 27.363281 63.882812 29.742188 62.53125 31.042969 60.355469 L 37.980469 48.734375 L 56.675781 52.492188 L 63.242188 72.308594 L 70.105469 70.003906 L 63.535156 50.195312 C 63.132812 48.980469 62.414062 47.890625 61.460938 47.042969 C 60.503906 46.195312 59.339844 45.613281 58.089844 45.359375 L 47.097656 43.152344 L 53.507812 32.414062 Z M 55.015625 34.683594 " fill-opacity="1" fill-rule="nonzero"/></g><g clip-path="url(#dadd0c3899)"><path fill="#fec613" d="M 15.332031 8.304688 C 15.636719 8.304688 15.878906 8.425781 16 8.667969 L 30.257812 30.929688 C 30.316406 31.050781 30.378906 31.234375 30.378906 31.355469 C 30.378906 31.476562 30.316406 31.597656 30.257812 31.71875 C 30.132812 31.964844 29.828125 32.148438 29.519531 32.148438 L 22.117188 32.148438 C 22.179688 34.457031 22.421875 36.648438 22.855469 38.714844 C 24.871094 52.28125 27.992188 64.566406 38.273438 65.964844 C 34.660156 65.84375 31.113281 64.996094 27.929688 63.59375 C 19.304688 59.761719 12.761719 51.914062 10.066406 42.0625 C 9.148438 38.777344 8.660156 35.429688 8.539062 32.148438 L 1.015625 32.148438 C 0.707031 32.148438 0.460938 31.964844 0.277344 31.71875 C 0.15625 31.476562 0.15625 31.171875 0.277344 30.867188 L 14.59375 8.667969 C 14.777344 8.425781 15.023438 8.304688 15.332031 8.304688 Z M 15.332031 8.304688 " fill-opacity="1" fill-rule="nonzero"/></g><g clip-path="url(#9f7cc1732b)"><path fill="#edb20a" d="M 22.855469 38.835938 C 23.585938 42.851562 24.992188 46.378906 26.953125 49.363281 C 30.316406 54.710938 36.617188 58.242188 42.308594 61.042969 C 42.980469 61.34375 43.59375 61.710938 44.207031 61.953125 C 45.183594 62.4375 46.164062 62.863281 47.140625 63.472656 C 47.386719 63.59375 47.570312 63.898438 47.570312 64.203125 C 47.570312 64.203125 47.570312 64.261719 47.570312 64.261719 C 47.507812 64.566406 47.324219 64.871094 47.019531 64.929688 C 45.796875 65.296875 44.511719 65.601562 43.285156 65.785156 C 41.636719 66.027344 39.984375 66.089844 38.273438 66.027344 C 27.929688 64.6875 24.8125 52.339844 22.855469 38.835938 Z M 22.855469 38.835938 " fill-opacity="1" fill-rule="nonzero"/></g></svg>